<?xml version="1.0" encoding="UTF-8" standalone="no"?>
<!-- Created with Inkscape (http://www.inkscape.org/) -->

<svg
   xmlns:svg="http://www.w3.org/2000/svg"
   xmlns="http://www.w3.org/2000/svg"
   version="1.2"
   width="64"
   height="64"
   id="svg2816">
  <defs
     id="defs2818" />
  <g
     id="layer1">
    <g
       transform="translate(8.7272727,10.909091)"
       id="flowRoot3029"
       style="font-size:40px;font-style:normal;font-variant:normal;font-weight:normal;font-stretch:normal;fill:#000000;fill-opacity:1;stroke:none;font-family:Andalus;-inkscape-font-specification:Andalus">
      <path
         d="m 40.158854,15.185807 c -3.8e-5,3.255239 -1.45403,5.783448 -4.361979,7.584635 -0.238749,0.173637 -0.488315,0.423203 -0.748698,0.748698 -0.26045,0.325546 -0.542567,0.70532 -0.846354,1.139323 l 0,24.446615 -1.529948,-1.595052 c -0.15194,-0.889755 -0.358103,-1.736108 -0.61849,-2.539063 -0.238745,-0.802947 -0.585967,-1.49739 -1.041666,-2.083333 -0.434057,-0.607633 -1.009143,-1.085063 -1.725261,-1.432292 -0.694471,-0.368916 -1.562526,-0.553377 -2.604166,-0.553385 l -9.99349,0.748698 C 14.996081,41.52045 13.411881,41.260033 11.936198,40.869401 10.482196,40.478784 9.2235169,39.860295 8.1601563,39.013932 7.0967829,38.145887 6.2612803,36.984864 5.6536458,35.530859 5.0460037,34.055179 4.7421846,32.178011 4.7421875,29.899348 c -2.9e-6,-1.562479 0.2061601,-3.114127 0.6184896,-4.654947 0.4340238,-1.562475 1.1393182,-2.962213 2.1158854,-4.199219 l 1.2044271,1.529948 c -0.477437,0.976588 -0.8789123,2.007402 -1.2044271,3.092448 -0.3038248,1.085091 -0.4557344,2.213562 -0.4557292,3.385416 -5.2e-6,0.998283 0.1736058,1.953143 0.5208334,2.864584 0.3689175,0.911474 0.933153,1.725275 1.6927083,2.441406 0.781242,0.694458 1.790355,1.247843 3.027344,1.660156 1.236967,0.412339 2.734362,0.618502 4.492187,0.61849 0.759533,1.2e-5 1.529932,-0.06509 2.311198,-0.195313 0.802933,-0.130196 1.605884,-0.1953 2.408854,-0.195312 1.171854,1.2e-5 2.289475,0.08682 3.352865,0.260416 1.063344,0.173624 2.018204,0.466592 2.864583,0.878907 l 3.255209,2.604166 0,-24.023437 c -3e-5,-0.412293 -0.336401,-0.651008 -1.009115,-0.716146 -1.171902,0.238749 -2.25697,0.651075 -3.255208,1.236979 -0.998288,0.585969 -1.909746,1.291264 -2.734375,2.115886 -0.824674,0.824682 -1.562521,1.74699 -2.213542,2.766927 -0.62936,0.99829 -1.161043,2.039956 -1.595052,3.125 0.45571,-0.21699 0.92229,-0.325497 1.399739,-0.325521 0.412307,2.4e-5 0.813782,0.08683 1.204428,0.260416 0.412305,0.173636 0.770377,0.423202 1.074218,0.748698 0.303797,0.325545 0.542513,0.72702 0.716146,1.204427 0.19529,0.455752 0.292946,0.965734 0.292969,1.529948 -0.10853,1.302103 -0.596811,2.300366 -1.464844,2.994792 -0.846375,0.67276 -1.920592,1.009132 -3.222656,1.009115 -1.757829,1.7e-5 -3.114165,-0.57507 -4.069011,-1.725261 -0.933173,-1.150154 -1.399752,-2.777756 -1.399739,-4.882812 0.282105,-1.757787 0.83549,-3.407091 1.660156,-4.947917 0.824638,-1.540769 1.866303,-2.907955 3.125,-4.101562 1.258662,-1.215244 2.680101,-2.213507 4.264323,-2.994792 1.605879,-0.802915 3.320287,-1.323748 5.143229,-1.5625 0.933132,0.217051 1.725232,0.564273 2.376302,1.041667 0.651012,0.455764 1.182695,0.998299 1.595052,1.627604 0.433997,0.607672 0.759517,1.280415 0.976563,2.018229 0.238683,0.716177 0.412294,1.443173 0.520833,2.180989 l 0.358073,0 c 0.477397,3.1e-5 0.900574,-0.08677 1.269531,-0.260416 0.36889,-0.195282 0.683559,-0.444848 0.944011,-0.748698 0.260381,-0.325489 0.455693,-0.683562 0.585937,-1.074219 0.130173,-0.412293 0.195277,-0.846321 0.195313,-1.302083 -3.6e-5,-0.629306 -0.119394,-1.226094 -0.358073,-1.790365 -0.217049,-0.585901 -0.618525,-1.139286 -1.204427,-1.660156 -0.56427,-0.542497 -1.334669,-1.06333 -2.311198,-1.5625 C 32.856306,9.6736932 31.630179,9.1854124 30.132812,8.7079422 23.709179,6.6246511 20.269513,5.4744786 19.813802,5.2574214 16.25476,3.4996542 14.475248,1.1667573 14.47526,-1.7412765 c 0.04339,-0.6075877 0.184449,-1.2043753 0.423178,-1.7903646 0.238701,-0.6075859 0.53167,-1.1826722 0.878906,-1.7252604 0.368909,-0.5424801 0.770384,-1.0307609 1.204427,-1.4648438 0.455713,-0.4339718 0.911442,-0.7811936 1.367187,-1.0416667 l 1.790365,1.953125 c -0.477448,0.1736656 -0.911476,0.3581273 -1.302083,0.5533855 -0.390642,0.173665 -0.737864,0.3906787 -1.041667,0.6510416 -0.282134,0.2604699 -0.5317,0.5859904 -0.748698,0.9765625 -0.195328,0.3906771 -0.336386,0.8789579 -0.423177,1.4648438 -1.5e-5,1.56254943 3.689218,3.428867 11.067708,5.5989583 2.47393,0.7378919 4.513859,1.4865891 6.119792,2.2460938 1.605869,0.759591 2.875399,1.5733922 3.808594,2.4414062 0.933123,0.8680954 1.573313,1.8121049 1.920573,2.8320313 0.368885,1.020002 0.553347,2.159324 0.553385,3.417969 l 0.0651,0.813802 0,0"
         id="path3038"
         style="font-size:50px;font-weight:bold;font-family:AdorshoLipi;-inkscape-font-specification:AdorshoLipi Bold" />
    </g>
  </g>
</svg>
