<?xml version="1.0" encoding="UTF-8" standalone="no"?>
<!-- Created with Inkscape (http://www.inkscape.org/) -->

<svg
   xmlns:svg="http://www.w3.org/2000/svg"
   xmlns="http://www.w3.org/2000/svg"
   version="1.2"
   width="64"
   height="64"
   id="svg2816">
  <defs
     id="defs2818" />
  <g
     id="layer1">
    <g
       transform="translate(4.1818182,-9.0909089)"
       id="flowRoot2997"
       style="font-size:40px;font-style:normal;font-variant:normal;font-weight:normal;font-stretch:normal;fill:#000000;fill-opacity:1;stroke:none;font-family:Andalus;-inkscape-font-specification:Andalus">
      <path
         d="m 45.511719,65.17289 c -0.303863,-0.18229 -0.592491,-0.865883 -0.865886,-2.050781 -0.364626,-1.64062 -0.835545,-2.962233 -1.41276,-3.964844 -0.546916,-1.002595 -1.215318,-1.777334 -2.005208,-2.324219 -0.759588,-0.577246 -1.655854,-0.95702 -2.688803,-1.139323 -1.033021,-0.212662 -2.202725,-0.318998 -3.509114,-0.31901 -1.002637,1.2e-5 -2.111577,0.07597 -3.326823,0.227864 -1.215307,0.151922 -2.476156,0.334213 -3.782552,0.546875 -1.276067,0.182303 -2.567298,0.349403 -3.873698,0.501303 -1.276063,0.15192 -2.491339,0.227874 -3.645833,0.227864 -2.187517,10e-6 -4.192723,-0.410145 -6.015625,-1.230469 C 12.562489,54.82785 10.99782,53.673337 9.6914063,52.184609 8.3849759,50.69591 7.3671818,48.918568 6.6380208,46.852577 5.9088499,44.786628 5.5442669,42.492793 5.5442708,39.971067 5.5442669,37.783596 5.863277,35.62648 6.5013021,33.499713 7.1696993,31.342631 8.1571115,29.398188 9.4635417,27.66638 l 1.8684893,1.959635 c -0.789939,1.276078 -1.4279594,2.719219 -1.9140622,4.329427 -0.4557366,1.610275 -0.6836009,3.205325 -0.6835938,4.785156 -7.1e-6,1.61027 0.2278572,3.098984 0.6835938,4.466146 0.4861028,1.36721 1.2304592,2.552105 2.2330732,3.554688 1.002593,1.002623 2.293824,1.792553 3.873698,2.369791 1.579845,0.546893 3.478715,0.82033 5.696614,0.820313 0.577237,1.7e-5 1.154493,-0.03036 1.731771,-0.09115 0.577235,-0.09113 1.215255,-0.182274 1.914062,-0.273438 0.729143,-0.09113 1.564646,-0.167083 2.506511,-0.227864 0.941814,-0.09113 2.065944,-0.136701 3.372396,-0.136719 1.367157,1.8e-5 2.597624,0.121546 3.691406,0.364583 1.124098,0.212691 2.157083,0.546892 3.098958,1.002605 0.972186,0.455745 1.898834,1.01781 2.779948,1.686198 0.881037,0.668416 1.792494,1.427964 2.734375,2.278645 l 0,-33.997395 c -4.1e-5,-0.57721 -0.45577,-0.911411 -1.367187,-1.002605 -1.610282,0.425395 -3.17495,1.002651 -4.694011,1.731771 -1.488749,0.729212 -2.855935,1.625478 -4.101562,2.688802 -1.24569,1.06341 -2.324248,2.309069 -3.235677,3.736979 -0.881104,1.397608 -1.519124,2.992658 -1.914063,4.785157 0.637994,-0.243021 1.291205,-0.364549 1.959636,-0.364584 1.367158,3.5e-5 2.460907,0.501337 3.28125,1.503907 0.82028,1.002636 1.230436,2.369822 1.230468,4.101562 -3.2e-5,0.729195 -0.167133,1.412788 -0.501302,2.050781 -0.334233,0.638048 -0.789962,1.200113 -1.367187,1.686198 -0.577287,0.455755 -1.26088,0.820338 -2.050781,1.09375 -0.759577,0.273462 -1.579889,0.410181 -2.460938,0.410157 -1.245685,2.4e-5 -2.354624,-0.21265 -3.326823,-0.638021 -0.941862,-0.425322 -1.746983,-0.987388 -2.415364,-1.686198 -0.638041,-0.72914 -1.124152,-1.53426 -1.458334,-2.415365 -0.33422,-0.911428 -0.50132,-1.853268 -0.501302,-2.825521 -1.8e-5,-1.610209 0.258228,-3.220451 0.77474,-4.830729 0.546855,-1.640587 1.291212,-3.220446 2.233073,-4.739583 0.941817,-1.519055 2.050757,-2.947005 3.326823,-4.283854 1.276015,-1.336759 2.643201,-2.506463 4.101562,-3.509115 1.488685,-1.032936 3.022972,-1.853248 4.602865,-2.460937 1.610208,-0.607587 3.220449,-0.941788 4.830729,-1.002605 0.789891,0.06082 1.610203,0.349445 2.460937,0.865886 0.850653,0.486162 1.640583,1.0938 2.369792,1.822917 0.759505,0.698833 1.412716,1.458381 1.959635,2.278645 0.54683,0.82036 0.896222,1.595098 1.048177,2.324219 l 0,45.527344 -2.324218,-2.233073 0,0"
         id="path3006"
         style="font-size:70px;font-family:AdorshoLipi;-inkscape-font-specification:AdorshoLipi" />
    </g>
  </g>
</svg>
