<?xml version="1.0" encoding="UTF-8" standalone="no"?>
<!-- Created with Inkscape (http://www.inkscape.org/) -->

<svg
   xmlns:svg="http://www.w3.org/2000/svg"
   xmlns="http://www.w3.org/2000/svg"
   version="1.2"
   width="64"
   height="64"
   id="svg2816">
  <defs
     id="defs2818" />
  <g
     id="layer1">
    <g
       transform="translate(10.545454,6)"
       id="flowRoot2869"
       style="font-size:40px;font-style:normal;font-variant:normal;font-weight:normal;font-stretch:normal;fill:#000000;fill-opacity:1;stroke:none;font-family:Andalus;-inkscape-font-specification:Andalus">
      <path
         d="m 14.705729,16.989544 c -0.190984,0.334238 -0.334213,0.620696 -0.429687,0.859375 -0.0955,0.21488 -0.143241,0.441659 -0.143229,0.680338 -1.2e-5,0.358109 0.10741,0.656502 0.322265,0.895183 0.214832,0.214878 0.489354,0.40585 0.823568,0.572916 0.334188,0.167135 0.704196,0.3223 1.110026,0.465495 0.429673,0.119391 0.847424,0.250685 1.253255,0.39388 1.480018,0.835536 2.685529,1.862011 3.616537,3.079427 0.954841,1.217477 1.432271,2.637832 1.432291,4.261068 l 0,0.465495 c -2e-5,0.09551 -0.01196,0.179062 -0.03581,0.250651 -2e-5,0.07164 -0.01196,0.15519 -0.03581,0.250651 1.217426,-1.718723 2.709395,-3.294243 4.475911,-4.726563 1.766467,-1.43226 3.628444,-2.601964 5.585938,-3.509114 l 6.015625,3.974609 c -1.360712,1.12199 -2.578159,2.399116 -3.652344,3.83138 -1.07425,1.408445 -1.981368,2.924285 -2.721354,4.547526 -0.740047,1.599412 -1.312963,3.282353 -1.71875,5.048829 -0.381972,1.766507 -0.572945,3.544934 -0.572917,5.335286 -2.8e-5,1.145843 0.05965,2.184253 0.179036,3.115234 0.11933,0.907125 0.298367,1.790371 0.53711,2.64974 0.262558,0.835507 0.596759,1.682946 1.002604,2.542318 0.429658,0.859376 0.930959,1.8023 1.503906,2.828776 L 30.174479,53.26233 c -0.883273,-2.24392 -1.599418,-4.499777 -2.148437,-6.767578 -0.525199,-2.267785 -0.787785,-4.559449 -0.787761,-6.875 -2.4e-5,-2.029063 0.226755,-3.998462 0.680339,-5.908203 0.477404,-1.933571 1.253228,-3.867163 2.327474,-5.800781 -0.835531,0.8594 -1.659097,1.802325 -2.470703,2.828776 -0.787785,1.002626 -1.587481,2.029101 -2.399089,3.079427 -0.811654,1.050366 -1.635221,2.100713 -2.470703,3.151041 -0.835523,1.026492 -1.706833,1.981353 -2.613932,2.864584 -0.907135,0.88326 -1.861995,1.671019 -2.864584,2.363281 -1.002618,0.668414 -2.076835,1.181652 -3.222656,1.539714 -0.954872,10e-6 -1.838117,-0.202898 -2.649739,-0.608724 C 10.743047,42.723062 10.026902,42.185953 9.40625,41.517539 8.8094555,40.825278 8.3200897,40.025582 7.938151,39.11845 7.5562016,38.187476 7.3174865,37.208745 7.2220052,36.182252 c 0.023867,-0.214825 0.095481,-0.405797 0.2148438,-0.572917 0.1432241,-0.167082 0.2864531,-0.322246 0.4296875,-0.465494 0.1670952,-0.14321 0.3341957,-0.274504 0.501302,-0.393881 0.1909662,-0.143209 0.346131,-0.298374 0.4654948,-0.465494 0.4058093,1.503924 0.8951751,2.55427 1.4680987,3.151041 0.59678,0.596805 1.229375,0.895198 1.897787,0.895183 0.501292,1.5e-5 1.18163,-0.262571 2.041015,-0.787761 0.883234,-0.525156 1.742608,-1.205494 2.578125,-2.041015 0.85936,-0.835484 1.599377,-1.766473 2.220052,-2.792969 0.620643,-1.026453 0.930973,-2.040992 0.93099,-3.04362 -1.7e-5,-0.620635 -0.07163,-1.229358 -0.214844,-1.826172 -0.143246,-0.596761 -0.346154,-1.121934 -0.608724,-1.575521 -0.262603,-0.45353 -0.596804,-0.811603 -1.002604,-1.074218 -0.38196,-0.286429 -0.823582,-0.429659 -1.32487,-0.429688 -0.549059,2.9e-5 -1.205525,0.262616 -1.969401,0.78776 -1.2e-5,1.503934 -0.358085,2.697509 -1.074218,3.58073 -0.716157,0.88327 -1.682953,1.324893 -2.900391,1.324869 C 10.158195,30.453109 9.5017291,30.345687 8.9049479,30.13082 8.3081539,29.892129 7.7949166,29.569864 7.3652344,29.164023 6.9355425,28.734361 6.5894057,28.233059 6.3268229,27.660117 6.0881041,27.063356 5.9687466,26.406889 5.96875,25.690716 l 0,-0.214844 c -3.4e-6,-0.739988 0.1670971,-1.432262 0.5013021,-2.076823 0.3580686,-0.6445 0.8116272,-1.217416 1.3606771,-1.71875 0.5490393,-0.501269 1.1577626,-0.907085 1.8261718,-1.217448 0.668395,-0.334167 1.324861,-0.549011 1.969401,-0.644531 l -1.6829426,-2.828776 -8.5579427,0 0,-3.688151 27.9296873,0 c 1.265163,-0.405775 1.897758,-1.312892 1.897787,-2.721354 -2.9e-5,-0.310286 -0.119387,-0.572873 -0.358073,-0.7877609 C 30.616074,9.577479 30.293809,9.3984427 29.888021,9.2551687 29.506049,9.1119847 29.064427,9.0045629 28.563151,8.9329031 28.085695,8.8613339 27.596329,8.8255266 27.095052,8.8254812 25.161436,9.0164987 23.215908,9.2074707 21.258464,9.3983979 19.324853,9.5655433 17.379325,9.720708 15.421875,9.8638927 l -2.255859,0 C 12.903418,9.863937 12.497603,9.8281298 11.948568,9.7564708 11.399514,9.6610293 10.778855,9.5058645 10.086589,9.290976 9.4181789,9.0523059 8.7139695,8.7419764 7.9739583,8.3599864 7.2578078,7.9780882 6.5894057,7.4887224 5.96875,6.8918875 5.3480875,6.2951472 4.8229144,5.5790021 4.3932292,4.74345 3.9635402,3.9079968 3.7128894,2.9292652 3.641276,1.8072521 3.6412749,0.51824327 3.9516045,-0.57984591 4.5722656,-1.4870188 l 1.3248698,-1.0384114 1.2532552,1.4680989 c -0.5490492,0.97878697 -0.8235715,1.82622536 -0.8235677,2.5423177 -3.8e-6,0.5968404 0.155161,1.0862062 0.4654948,1.468099 0.3341968,0.3819953 0.7638839,0.6923249 1.2890625,0.9309896 0.549039,0.2148939 1.1696981,0.3700586 1.8619792,0.4654948 0.6922666,0.095536 1.4203466,0.1432789 2.1842446,0.1432291 1.074208,4.98e-5 2.041004,-0.035758 2.900391,-0.1074218 0.883233,-0.071565 1.694864,-0.155115 2.434896,-0.2506511 0.763873,-0.095436 1.503889,-0.1789862 2.220052,-0.250651 0.716128,-0.071564 1.456144,-0.1073714 2.220052,-0.1074219 1.670986,5.05e-5 3.234569,0.1790867 4.690755,0.5371094 1.456138,0.3342509 2.721327,0.8713598 3.795573,1.6113281 1.098061,0.7161934 1.957435,1.6471821 2.578125,2.7929688 0.6445,1.1220061 0.966765,2.4588106 0.966797,4.0104166 l 0,0.572917 7.447916,0 0,3.688151 -26.676432,0 0,0"
         id="path2878"
         style="font-size:55px;font-family:AdorshoLipi;-inkscape-font-specification:AdorshoLipi" />
    </g>
  </g>
</svg>
