<?xml version="1.0" encoding="UTF-8" standalone="no"?>
<!-- Created with Inkscape (http://www.inkscape.org/) -->

<svg
   xmlns:svg="http://www.w3.org/2000/svg"
   xmlns="http://www.w3.org/2000/svg"
   version="1.2"
   width="64"
   height="64"
   id="svg2816">
  <defs
     id="defs2818" />
  <g
     id="layer1">
    <g
       transform="translate(13.818182,7.4545455)"
       id="flowRoot2826"
       style="font-size:40px;font-style:normal;font-variant:normal;font-weight:bold;font-stretch:condensed;fill:#000000;fill-opacity:1;stroke:none;font-family:Agency FB;-inkscape-font-specification:Agency FB Bold Condensed">
      <path
         d="m 15.856771,14.271744 c 0.06509,0.520867 0.2387,0.976596 0.520833,1.367188 0.282103,0.368956 0.618474,0.683625 1.009115,0.94401 0.390608,0.260448 0.813785,0.477462 1.269531,0.651042 0.477413,0.15194 0.943992,0.271298 1.39974,0.358073 0.868036,0.195343 1.714389,0.618519 2.539062,1.269531 0.846332,0.65107 1.595029,1.421469 2.246094,2.311198 0.672719,0.889783 1.204402,1.855494 1.595052,2.897135 0.412301,1.04169 0.618464,2.061654 0.618489,3.059896 -0.08683,1.345506 -0.4015,2.549932 -0.94401,3.613281 -0.520857,1.041683 -1.215301,1.974842 -2.083333,2.79948 -0.846376,0.802965 -1.85549,1.497409 -3.027344,2.083333 -1.150192,0.564248 -2.398021,1.041678 -3.74349,1.432292 1.584184,1.085079 2.983923,2.072491 4.199219,2.962239 1.236958,0.868063 2.387131,1.736118 3.450521,2.604167 1.085045,0.86806 2.137561,1.768667 3.157552,2.701823 1.019938,0.91146 2.115857,1.953126 3.28776,3.125 l 1.041667,4.557291 c -1.584231,-1.714412 -3.363743,-3.374567 -5.338542,-4.980468 -1.97485,-1.605901 -4.069031,-3.070744 -6.282552,-4.394532 -2.191857,-1.323778 -4.45965,-2.4631 -6.803385,-3.417968 C 11.62499,39.239201 9.3029436,38.523056 7.0026042,38.067317 L 2.9986979,29.733984 c 1.3020805,0.802969 2.7669228,1.443159 4.3945313,1.920573 1.6492979,0.455745 3.2986018,0.683609 4.9479168,0.683594 0.759537,1.5e-5 1.681845,-0.08679 2.766927,-0.260417 1.106756,-0.195296 2.180974,-0.531668 3.222656,-1.009115 1.041649,-0.499114 1.963957,-1.171856 2.766927,-2.018229 0.824633,-0.846334 1.345465,-1.931402 1.5625,-3.255208 -0.04342,-0.67272 -0.217035,-1.312911 -0.520833,-1.920573 -0.282139,-0.607614 -0.640211,-1.139298 -1.074219,-1.595052 -0.434047,-0.455703 -0.933178,-0.813776 -1.497396,-1.074219 -0.542552,-0.282091 -1.085086,-0.42315 -1.627604,-0.423177 -0.412342,2.7e-5 -0.878922,0.119385 -1.399739,0.358073 -1.5e-5,0.868082 -0.206178,1.671032 -0.61849,2.408854 -0.390639,0.737871 -0.900621,1.378061 -1.529948,1.920573 -0.629352,0.542557 -1.323796,0.965733 -2.083333,1.269531 -0.759559,0.303841 -1.508256,0.45575 -2.246094,0.455729 -0.8246605,2.1e-5 -1.5950591,-0.206142 -2.3111979,-0.618489 -0.69445,-0.412305 -1.1393281,-1.095898 -1.3346354,-2.050781 0.021696,-0.99824 0.2278594,-1.898846 0.6184895,-2.701823 0.4123205,-0.824626 0.9548546,-1.562473 1.6276042,-2.213542 0.6727352,-0.651013 1.4431336,-1.215248 2.3111976,-1.692708 0.889747,-0.4774 1.833756,-0.878876 2.832032,-1.204427 -0.10852,-0.04337 -0.206176,-0.206132 -0.292969,-0.488282 -0.08682,-0.303787 -0.28213,-0.607606 -0.585938,-0.911458 l -1.204427,-1.041667 -11.2304685,0 0,-3.352864 19.5638025,0 2.213541,-0.195313 c 0.151889,-0.02166 0.358052,-0.09762 0.61849,-0.227864 0.260395,-0.130171 0.49911,-0.292931 0.716146,-0.488282 C 23.84286,9.8121472 24.049023,9.5842828 24.222656,9.3238276 24.396244,9.06345 24.48305,8.7921829 24.483073,8.5100255 24.48305,8.1194406 24.276887,7.79392 23.864583,7.533463 23.452235,7.2513859 22.963954,7.0343722 22.39974,6.8824214 21.835483,6.7305531 21.260397,6.6220462 20.674479,6.5569005 20.110224,6.491838 19.665346,6.459286 19.339844,6.4592443 c -0.151928,-0.02166 -0.292987,-0.03251 -0.423177,-0.032552 -0.130226,-0.02166 -0.271285,-0.03251 -0.423177,-0.032552 l -0.813803,0 -7.6822912,0.4557292 C 8.9123189,6.8499106 7.7729972,6.7088517 6.5794271,6.4266922 5.3858468,6.1229148 4.2790771,5.6671861 3.2591146,5.0595047 2.2608499,4.4519095 1.4361979,3.6923616 0.78515625,2.7808589 0.13411592,1.8477454 -0.19140459,0.74097571 -0.19140625,-0.53945362 c 1.66e-6,-0.39057594 0.0434044,-0.78120058 0.13020833,-1.17187498 0.06510563,-0.4122762 0.19531384,-0.7920501 0.390625,-1.1393229 0.19531345,-0.3471709 0.47743122,-0.6292887 0.84635412,-0.8463542 0.3472222,-0.2169619 0.8029509,-0.3254687 1.3671876,-0.3255208 0.1302071,5.21e-5 0.2604153,0.010903 0.390625,0.032552 0.1302067,5.22e-5 0.2604149,0.021753 0.390625,0.065104 -0.4991334,0.5425862 -0.9114593,1.1068218 -1.2369792,1.6927083 -0.3038198,0.564286 -0.4557293,1.1068201 -0.4557292,1.62760421 -1e-7,0.36897198 0.097656,0.71619385 0.2929688,1.04166667 0.1953118,0.3255682 0.5208323,0.60768592 0.9765625,0.84635412 0.4557272,0.2387619 1.0416642,0.4340742 1.7578125,0.5859375 0.7378433,0.1302545 1.6493007,0.1953586 2.734375,0.1953125 0.1953063,4.61e-5 1.0959131,-0.032506 2.7018228,-0.097656 1.605893,-0.065058 4.068998,-0.1952661 7.389323,-0.390625 1.388871,4.65e-5 2.669252,0.2279109 3.841146,0.6835937 1.171854,0.4340733 2.180967,1.0417115 3.027344,1.8229167 0.84633,0.7595919 1.508222,1.6601986 1.985677,2.7018229 0.477405,1.0200056 0.71612,2.1159247 0.716145,3.2877609 l -0.0651,0.846354 8.756511,0 0,3.352864 -19.889323,0 0,0"
         id="path2835"
         style="font-size:50px;font-weight:normal;font-stretch:normal;font-family:AdorshoLipi;-inkscape-font-specification:AdorshoLipi" />
    </g>
  </g>
</svg>
