<?xml version="1.0" encoding="UTF-8" standalone="no"?>
<!-- Created with Inkscape (http://www.inkscape.org/) -->

<svg
   xmlns:svg="http://www.w3.org/2000/svg"
   xmlns="http://www.w3.org/2000/svg"
   version="1.2"
   width="64"
   height="64"
   id="svg2834">
  <defs
     id="defs2836" />
  <g
     id="layer1">
    <g
       transform="matrix(1.0133944,0,0,1.0041009,2.7082974,3.9768377)"
       id="flowRoot2897"
       style="font-size:40px;font-style:normal;font-weight:normal;fill:#000000;fill-opacity:1;stroke:none;font-family:Bitstream Vera Sans">
      <path
         d="m 37.744792,49.105078 c -0.520868,-0.564236 -0.944045,-1.193576 -1.269532,-1.888021 -0.325554,-0.694442 -0.596821,-1.378035 -0.813802,-2.050781 -0.195345,-0.694441 -0.368956,-1.334631 -0.520833,-1.920573 -0.130241,-0.585932 -0.2713,-1.052511 -0.423177,-1.39974 -0.954892,-1.432283 -1.736141,-2.571605 -2.34375,-3.417969 -0.585967,-0.846343 -1.063397,-1.497384 -1.432292,-1.953125 -0.34725,-0.477417 -0.629368,-0.824639 -0.846354,-1.041666 -0.19534,-0.217001 -0.390652,-0.412313 -0.585937,-0.585938 -0.412353,0.824666 -0.933186,1.551662 -1.5625,2.18099 -0.607664,0.629351 -1.291257,1.161035 -2.050782,1.595052 -0.759571,0.412336 -1.562521,0.727006 -2.408854,0.94401 -0.846374,0.195322 -1.703578,0.292978 -2.571614,0.292969 -1.584218,9e-6 -3.059911,-0.325512 -4.427084,-0.976563 C 15.142783,38.232692 13.894954,37.353787 12.744792,36.247005 11.616311,35.140248 10.574645,33.838166 9.6197917,32.340755 8.6649246,30.821676 7.7968699,29.204924 7.015625,27.490494 6.2560729,25.776108 5.5724798,24.007446 4.9648437,22.184505 4.3572032,20.339915 3.8255197,18.517 3.3697917,16.715755 l 2.0833333,0.846354 c 0.3255178,1.280412 0.7269931,2.582494 1.2044271,3.90625 0.4991275,1.302109 1.0850644,2.571639 1.7578125,3.808594 0.694438,1.237001 1.4648366,2.398024 2.3111984,3.483073 0.868046,1.085088 1.833757,2.039948 2.897135,2.864583 1.085057,0.802968 2.267782,1.443158 3.548177,1.920573 1.280366,0.455744 2.680104,0.683608 4.199219,0.683594 0.954841,1.4e-5 1.779493,-0.130194 2.473958,-0.390625 0.716124,-0.282103 1.302061,-0.661877 1.757813,-1.139323 0.455705,-0.499116 0.792077,-1.074202 1.009114,-1.725261 0.238691,-0.672724 0.358049,-1.39972 0.358073,-2.180989 -2.4e-5,-0.824632 -0.09768,-1.616732 -0.292969,-2.376302 -0.173635,-0.781227 -0.4232,-1.46482 -0.748698,-2.050782 -0.303842,-0.607614 -0.661914,-1.085044 -1.074218,-1.432291 -0.390647,-0.368898 -0.813824,-0.553359 -1.269532,-0.553386 -0.759568,0.99829 -1.57337,1.80124 -2.441406,2.408854 -0.868073,0.607663 -1.790381,0.911482 -2.766927,0.911459 -0.520848,2.3e-5 -1.063383,-0.09763 -1.627604,-0.292969 -0.542548,-0.21699 -1.030829,-0.509959 -1.464844,-0.878906 -0.43404,-0.368899 -0.792112,-0.813777 -1.074219,-1.334636 -0.282129,-0.542508 -0.423188,-1.128445 -0.423177,-1.757812 -1.1e-5,-0.564208 0.09764,-1.117593 0.292969,-1.660156 0.195301,-0.564207 0.466568,-1.063338 0.813802,-1.497396 0.368911,-0.455698 0.802939,-0.813771 1.302083,-1.074219 0.52082,-0.282086 1.095906,-0.423145 1.725261,-0.423177 1.844601,3.2e-5 3.537308,0.336403 5.078125,1.009114 1.540777,0.672774 2.86456,1.616783 3.971354,2.832032 1.128447,1.193603 1.996502,2.615043 2.604167,4.264323 0.629313,1.627626 0.943982,3.396288 0.94401,5.305989 l 3.873698,6.705729 0,-21.907552 -32.9752603,0 0,-3.352864 35.4166663,0 0.09766,-0.03255 c 0.325486,-0.06507 0.629305,-0.09762 0.911458,-0.09766 1.323748,3.8e-5 2.46307,0.141097 3.417969,0.423177 0.976523,0.282155 1.822876,0.759585 2.539062,1.432292 0.716104,0.672778 1.345444,1.573385 1.888021,2.701823 0.564193,1.106803 1.106727,2.49569 1.627604,4.166667 l -1.074219,-7.584636 c -0.06515,-1.453955 -0.119401,-2.604128 -0.16276,-3.4505205 -0.02175,-0.8680151 -0.04345,-1.5407575 -0.0651,-2.0182292 -0.02175,-0.4773884 -0.04345,-0.8137596 -0.0651,-1.0091146 -0.02174,-0.216971 -0.04345,-0.3905819 -0.0651,-0.5208333 l 1.302084,1.0742187 c 0.108462,0.9114996 0.292924,1.8012556 0.553385,2.6692709 0.260372,0.868094 0.737802,1.616791 1.432292,2.246094 l 6.542969,0 0,3.352864 -6.380209,0 0,34.99349 -3.352864,-3.483073 0,-25 c -6e-5,-1.56247 -0.412385,-2.897104 -1.236995,-4.003905 -0.824694,-1.106739 -2.050822,-1.942241 -3.678386,-2.506511 l -3.320312,0 0,34.114584"
         id="path2906"
         style="font-size:50px;font-variant:normal;font-stretch:normal;font-family:AdorshoLipi;-inkscape-font-specification:AdorshoLipi" />
    </g>
  </g>
</svg>
