<?xml version="1.0" encoding="UTF-8" standalone="no"?>
<!-- Created with Inkscape (http://www.inkscape.org/) -->

<svg
   xmlns:svg="http://www.w3.org/2000/svg"
   xmlns="http://www.w3.org/2000/svg"
   version="1.2"
   width="64"
   height="64"
   id="svg2816">
  <defs
     id="defs2818" />
  <g
     id="layer1">
    <g
       transform="translate(8.5454545,7.8181817)"
       id="flowRoot2901"
       style="font-size:40px;font-style:normal;font-variant:normal;font-weight:normal;font-stretch:normal;fill:#000000;fill-opacity:1;stroke:none;font-family:Andalus;-inkscape-font-specification:Andalus">
      <path
         d="m 22.132812,29.012031 c 0.02602,0.364611 0.104147,0.742215 0.234375,1.132812 0.130188,0.364611 0.312479,0.703152 0.546875,1.015625 0.234354,0.312526 0.507791,0.572943 0.820313,0.78125 0.338519,0.182317 0.729144,0.273463 1.171875,0.273438 0.260393,2.5e-5 0.572893,-0.182266 0.9375,-0.546875 0.3906,-0.364557 0.807267,-0.820286 1.25,-1.367188 0.442682,-0.546847 0.898411,-1.132784 1.367187,-1.757812 0.494765,-0.651012 0.963514,-1.24997 1.40625,-1.796875 0.468722,-0.546844 0.898409,-1.002572 1.289063,-1.367188 0.416637,-0.36455 0.78122,-0.546842 1.09375,-0.546875 0.859344,3.3e-5 1.640593,0.234408 2.34375,0.703125 0.703091,0.44274 1.328091,1.041698 1.875,1.796875 0.572881,0.729197 1.067672,1.57555 1.484375,2.539063 0.41663,0.937527 0.755171,1.888047 1.015625,2.851562 0.286421,0.963566 0.494754,1.901065 0.625,2.8125 0.13017,0.885438 0.195274,1.666687 0.195312,2.34375 -3.8e-5,1.953143 -0.299517,3.841162 -0.898437,5.664063 -0.572953,1.796887 -1.47139,3.385427 -2.695313,4.765625 -1.19795,1.354174 -2.721386,2.447923 -4.570312,3.28125 -1.822945,0.807297 -3.984401,1.210942 -6.484375,1.210937 -2.630229,5e-6 -4.934914,-0.494786 -6.914063,-1.484375 C 16.273423,50.327142 14.593737,48.985998 13.1875,47.293281 11.78124,45.600585 10.609366,43.647461 9.671875,41.433906 8.7343679,39.194341 7.9531187,36.850593 7.328125,34.402656 6.7031199,31.928723 6.2083287,29.415705 5.84375,26.863593 5.4791628,24.311543 5.1666631,21.87665 4.90625,19.558906 l 2.3828125,1.289062 c 0.1562442,1.562536 0.4166606,3.268263 0.78125,5.117188 0.3906182,1.822946 0.911451,3.671903 1.5625,5.546875 0.6770745,1.848982 1.4843655,3.645856 2.4218755,5.390625 0.937488,1.74481 2.044258,3.294288 3.320312,4.648437 1.302068,1.32814 2.773421,2.395847 4.414062,3.203125 1.666647,0.807304 3.528625,1.210949 5.585938,1.210938 1.510391,1.1e-5 2.942682,-0.273426 4.296875,-0.820313 1.354137,-0.572903 2.526011,-1.31509 3.515625,-2.226562 0.989551,-0.937485 1.7708,-2.005192 2.34375,-3.203125 0.598924,-1.197898 0.898403,-2.447896 0.898437,-3.75 C 36.429653,35.079762 36.286424,34.207367 36,33.347968 c -0.260451,-0.885391 -0.703159,-1.744765 -1.328125,-2.578125 -0.390658,0.781276 -1.002636,1.640651 -1.835938,2.578125 -0.807322,0.937524 -1.7318,1.809919 -2.773437,2.617188 -1.015652,0.781271 -2.109401,1.445333 -3.28125,1.992187 -1.171899,0.546894 -2.30471,0.820332 -3.398438,0.820313 -0.833354,1.9e-5 -1.575541,-0.182273 -2.226562,-0.546875 -0.651061,-0.364564 -1.197935,-0.846334 -1.640625,-1.445313 -0.442726,-0.598937 -0.794288,-1.28904 -1.054688,-2.070312 -0.234391,-0.781226 -0.351578,-1.588517 -0.351562,-2.421875 l 0,-15.117188 -17.65625,0 0,-4.023437 28.59375,0 3.125,-1.289063 0.976562,-0.78125 c -3.1e-5,-0.546828 -0.208364,-1.028598 -0.625,-1.4453123 -0.390655,-0.4166181 -0.95055,-0.7681803 -1.679687,-1.0546875 -0.703154,-0.2864089 -1.549507,-0.494742 -2.539063,-0.625 -0.963567,-0.1562 -2.018253,-0.234325 -3.164062,-0.234375 -1.562522,5e-5 -3.138041,0.091196 -4.726563,0.2734375 C 18.825504,8.1787469 17.249984,8.2698927 15.6875,8.2698432 14.333321,8.2698927 12.953114,8.0745804 11.546875,7.6839057 10.166658,7.2933312 8.9036386,6.7204151 7.7578125,5.9651557 6.6380158,5.1839583 5.7135376,4.2464592 4.984375,3.1526557 4.2812473,2.0329198 3.9296852,0.75687937 3.9296875,-0.67546934 3.9296852,-1.248327 3.9947893,-1.8082222 4.125,-2.3551568 4.2812473,-2.9019711 4.450518,-3.3837415 4.6328125,-3.8004693 4.8411426,-4.217074 5.0624966,-4.5425945 5.296875,-4.7770318 5.5312461,-5.0373857 5.7265584,-5.1675939 5.8828125,-5.1676568 l 1.9140625,0.8203125 c -0.4947973,0.3125618 -0.8593803,0.6901656 -1.09375,1.1328125 -0.2083382,0.4167272 -0.3776089,0.93756 -0.5078125,1.5625 -4.6e-6,0.85943355 0.2343702,1.57557867 0.703125,2.14843746 0.4947859,0.54693174 1.1197853,0.98963964 1.875,1.32812504 0.7552004,0.3125556 1.6015535,0.5339096 2.5390625,0.6640625 0.937489,0.1302635 1.861968,0.1953676 2.773438,0.1953125 l 11.210937,-0.625 c 1.432267,5.57e-5 2.838515,0.2474513 4.21875,0.7421875 1.380179,0.4688045 2.604136,1.1328663 3.671875,1.9921875 1.067676,0.8594271 1.92705,1.9010927 2.578125,3.125 0.651007,1.1979653 0.976527,2.5391093 0.976562,4.0234373 l 0,0.625 c -3.5e-5,0.130254 -0.02608,0.325566 -0.07813,0.585938 l 9.765625,0 0,4.023437 -24.296875,0 0,11.835938"
         id="path2910"
         style="font-size:60px;font-family:AdorshoLipi;-inkscape-font-specification:AdorshoLipi" />
    </g>
  </g>
</svg>
