<?xml version="1.0" encoding="UTF-8" standalone="no"?>
<!-- Created with Inkscape (http://www.inkscape.org/) -->

<svg
   xmlns:svg="http://www.w3.org/2000/svg"
   xmlns="http://www.w3.org/2000/svg"
   version="1.2"
   width="64"
   height="64"
   id="svg2816">
  <defs
     id="defs2818" />
  <g
     id="layer1">
    <g
       transform="translate(5.8181818,10.909091)"
       id="flowRoot2826"
       style="font-size:40px;font-style:normal;font-variant:normal;font-weight:normal;font-stretch:normal;fill:#000000;fill-opacity:1;stroke:none;font-family:Andalus;-inkscape-font-specification:Andalus">
      <path
         d="m 44.96875,20.005169 c -4.3e-5,2.220083 -1.050389,4.595297 -3.151042,7.125651 l -4.117838,4.189453 c 0.739981,1.074239 1.336768,2.327493 1.790364,3.759766 0.477393,1.432308 0.716108,2.864598 0.716146,4.296875 -3.8e-5,1.575532 -0.334239,2.948144 -1.002604,4.117838 -0.644568,1.169713 -1.492006,2.136509 -2.542318,2.900391 -1.050381,0.763894 -2.243956,1.33681 -3.580729,1.71875 -1.312964,0.381949 -2.625896,0.572921 -3.938802,0.572916 -2.387177,5e-6 -4.559484,-0.501297 -6.516927,-1.503906 C 20.667516,46.156434 18.901025,44.795758 17.325521,43.100872 15.749986,41.406005 14.341568,39.472413 13.10026,37.300091 11.858931,35.103928 10.760842,32.848071 9.8059896,30.532512 8.8511216,28.193128 8.0036832,25.865656 7.2636719,23.550091 6.5475215,21.234584 5.9149266,19.11002 5.3658854,17.176393 l 2.2916667,1.145833 c 0.5967819,1.575554 1.2532483,3.270431 1.969401,5.084635 0.7400089,1.790393 1.5755119,3.592691 2.5065109,5.406901 0.930978,1.790387 1.969388,3.521071 3.115234,5.192058 1.145819,1.647152 2.422944,3.11525 3.83138,4.404297 1.432273,1.265204 3.007793,2.279743 4.726563,3.043619 1.718726,0.7639 3.616511,1.145844 5.693359,1.145834 0.954833,1e-5 1.885821,-0.119347 2.792969,-0.358073 0.907087,-0.238704 1.706782,-0.608713 2.399088,-1.110026 0.716113,-0.50129 1.289029,-1.133885 1.71875,-1.897787 0.429653,-0.787746 0.644496,-1.718734 0.644532,-2.792968 -3.6e-5,-0.405799 -0.131329,-0.88323 -0.393881,-1.432292 -0.238749,-0.572898 -0.811665,-1.360658 -1.71875,-2.363281 -0.477463,0.620679 -1.002636,1.03843 -1.575521,1.253255 -0.549075,0.214862 -1.301028,0.358092 -2.255859,0.429687 -1.217476,1.9e-5 -2.208143,-0.381925 -2.972005,-1.145833 -0.763914,-0.78774 -1.145858,-1.969379 -1.145833,-3.544922 -2.5e-5,-0.644507 0.131268,-1.217423 0.39388,-1.71875 0.262561,-0.525148 0.608698,-0.966771 1.038411,-1.32487 0.453532,-0.381917 0.96677,-0.668375 1.539714,-0.859375 0.572888,-0.190944 1.169676,-0.28643 1.790364,-0.286458 0.930959,2.8e-5 1.790333,0.214871 2.578125,0.644531 0.883214,-0.358045 1.551616,-0.966769 2.005209,-1.826172 0.477395,-0.883217 0.71611,-1.790334 0.716146,-2.721354 -3.6e-5,-0.50127 -0.08359,-0.990636 -0.250652,-1.468099 -0.143263,-0.477397 -0.393914,-0.895148 -0.751953,-1.253255 -0.334235,-0.38191 -0.775858,-0.680304 -1.324869,-0.895182 -0.549078,-0.214809 -1.21748,-0.32223 -2.005209,-0.322266 -1.09812,3.6e-5 -2.196209,0.09552 -3.294271,0.286459 -1.098116,0.191007 -2.136527,0.501336 -3.115234,0.930989 -0.954884,0.429721 -1.83813,0.990702 -2.64974,1.682943 -0.787781,0.692306 -1.432311,1.527809 -1.933593,2.50651 0.429667,0.453589 0.775804,0.847469 1.038411,1.181641 0.286437,0.33423 0.501281,0.632623 0.644531,0.895182 0.143208,0.262615 0.238694,0.513265 0.286459,0.751953 0.04772,0.238742 0.07159,0.477457 0.07161,0.716146 -2.1e-5,1.312959 -0.381966,2.315562 -1.145833,3.007813 -0.740037,0.668425 -1.623283,1.002626 -2.64974,1.002604 -0.596805,2.2e-5 -1.193593,-0.08353 -1.790364,-0.250651 -0.572932,-0.19095 -1.098106,-0.513215 -1.575521,-0.966797 -0.453573,-0.453535 -0.823581,-1.038387 -1.110026,-1.754557 -0.286472,-0.739992 -0.429701,-1.67098 -0.429688,-2.792969 -1.3e-5,-1.814206 0.489353,-3.401661 1.468099,-4.76237 0.978718,-1.384514 2.231971,-2.542282 3.759766,-3.473307 1.527758,-0.930953 3.234571,-1.623226 5.120443,-2.076823 1.885825,-0.477392 3.735867,-0.716107 5.55013,-0.716146 1.09806,3.9e-5 2.136471,0.226818 3.115234,0.680339 0.9787,0.453597 1.826138,1.06232 2.542318,1.826171 0.716111,0.740054 1.277091,1.599428 1.682943,2.578125 0.429651,0.978766 0.644494,1.981369 0.644531,3.007813 -3.7e-5,0.883277 -0.179073,1.766522 -0.537109,2.649739 -0.334238,0.859403 -0.907154,1.659098 -1.71875,2.399089 0.692239,-0.429661 1.372576,-0.978706 2.041015,-1.647135 0.668366,-0.668375 1.253217,-1.396456 1.754558,-2.184245 0.525134,-0.78773 0.942885,-1.611297 1.253255,-2.470703 0.334161,-0.859342 0.501262,-1.694845 0.501302,-2.506511 -4e-5,-1.265155 -0.298434,-2.315501 -0.895182,-3.151041 -0.596823,-0.835465 -1.372647,-1.527739 -2.32747,-2.076823 -0.954898,-0.572876 -2.029115,-1.026435 -3.222657,-1.360677 -1.169737,-0.33416 -2.339441,-0.632554 -3.509114,-0.895183 C 29.428358,10.003042 26.981529,9.2988322 24.952474,8.5110281 22.923373,7.6994414 21.252368,6.80426 19.939453,5.8254812 18.650374,4.8467967 17.70745,3.7845148 17.110677,2.6386323 16.513874,1.4928504 16.215481,0.25153219 16.215495,-1.0853261 c -1.4e-5,-0.5967335 0.15515,-1.2054569 0.465495,-1.8261718 0.310314,-0.6444748 0.704194,-1.2412624 1.18164,-1.7903646 0.477414,-0.5728585 1.002588,-1.07416 1.575521,-1.5039063 0.59677,-0.4534994 1.169686,-0.7996362 1.71875,-1.0384114 0.787741,0.6445908 1.444207,1.3965431 1.969401,2.2558593 -1.145853,0.2149015 -1.957484,0.5968456 -2.434896,1.1458334 -0.477449,0.5252299 -0.716164,1.1220175 -0.716146,1.7903646 -1.8e-5,0.8116861 0.310312,1.63525298 0.93099,2.47070308 0.62064,0.81168362 1.4084,1.45621432 2.363281,1.93359372 l 7.26888,2.327474 c 2.243893,0.7161934 4.237164,1.4681458 5.979818,2.2558594 1.766457,0.7639341 3.258426,1.6949228 4.475912,2.7929687 1.217407,1.098132 2.160332,2.411065 2.828776,3.938802 0.692231,1.527816 1.098047,3.401729 1.217448,5.621745 l -0.07162,0.716146 0,0"
         id="path2835"
         style="font-size:55px;font-family:AdorshoLipi;-inkscape-font-specification:AdorshoLipi" />
    </g>
  </g>
</svg>
