<?xml version="1.0" encoding="UTF-8" standalone="no"?>
<!-- Created with Inkscape (http://www.inkscape.org/) -->

<svg
   xmlns:svg="http://www.w3.org/2000/svg"
   xmlns="http://www.w3.org/2000/svg"
   version="1.2"
   width="64"
   height="64"
   id="svg2816">
  <defs
     id="defs2818" />
  <g
     id="layer1">
    <g
       transform="translate(7.2727273,7.6363636)"
       id="flowRoot2933"
       style="font-size:40px;font-style:normal;font-variant:normal;font-weight:normal;font-stretch:normal;fill:#000000;fill-opacity:1;stroke:none;font-family:Andalus;-inkscape-font-specification:Andalus">
      <path
         d="m 26.351562,31.207343 c -2.4e-5,1.119817 0.234351,1.679712 0.703125,1.679688 1.145807,-0.312475 2.14841,-0.794246 3.007813,-1.445313 0.885387,-0.677056 1.692678,-1.419243 2.421875,-2.226562 0.755177,-0.833305 1.484343,-1.692679 2.1875,-2.578125 0.703091,-0.911427 1.445278,-1.75778 2.226562,-2.539063 1.249964,0.703158 2.317671,1.523469 3.203125,2.460938 0.885378,0.93753 1.614544,1.953154 2.1875,3.046875 0.598918,1.067735 1.028605,2.200546 1.289063,3.398437 0.286416,1.19794 0.429645,2.421897 0.429687,3.671875 -4.2e-5,2.005227 -0.364625,3.997413 -1.09375,5.976563 -0.703165,1.953138 -1.744831,3.697927 -3.125,5.234375 -1.354203,1.536466 -3.033889,2.786465 -5.039062,3.75 -1.979198,0.937505 -4.244821,1.406254 -6.796875,1.40625 -2.578149,-0.260412 -4.934917,-0.885412 -7.070313,-1.875 -2.109392,-0.989576 -4.010431,-2.252596 -5.703125,-3.789063 -1.666678,-1.562488 -3.12501,-3.33332 -4.374999,-5.3125 C 9.5546796,40.061527 8.4869723,37.939134 7.6015625,35.699531 6.7421824,33.459971 6.0650997,31.142265 5.5703125,28.746406 5.101559,26.324562 4.8020802,23.91571 4.671875,21.519843 L 4.59375,20.191718 6.8203125,22.105781 c 0.3124945,2.187533 0.7942648,4.414093 1.4453125,6.679687 0.677076,2.23961 1.5104085,4.388045 2.5,6.445313 0.989573,2.057311 2.148426,3.971372 3.476562,5.742187 1.354153,1.744807 2.877589,3.242201 4.570313,4.492188 -1.354183,-1.744778 -2.513036,-3.632797 -3.476562,-5.664063 -0.963555,-2.03123 -1.757825,-4.127582 -2.382813,-6.289062 -0.625011,-2.161433 -1.106781,-4.361951 -1.445312,-6.601563 -0.338552,-2.23955 -0.559906,-4.45309 -0.664063,-6.640625 l 2.304688,1.679688 c 0.130196,1.536492 0.35155,3.164094 0.664062,4.882812 0.312488,1.718779 0.742175,3.437527 1.289063,5.15625 0.54686,1.692732 1.223943,3.333356 2.031249,4.921875 0.833317,1.588561 1.8229,3.00783 2.96875,4.257813 1.145814,1.250015 2.460917,2.29168 3.945313,3.125 1.510393,0.807304 3.21612,1.302095 5.117187,1.484375 1.406222,1.1e-5 2.799449,-0.273426 4.179688,-0.820313 1.406217,-0.572903 2.656216,-1.328111 3.75,-2.265625 1.119755,-0.937484 2.018192,-2.018212 2.695312,-3.242187 0.703087,-1.249981 1.054649,-2.552063 1.054688,-3.90625 -3.9e-5,-1.744768 -0.625039,-3.398413 -1.875,-4.960938 -0.416704,0.67711 -1.028682,1.458359 -1.835938,2.34375 -0.781284,0.88544 -1.6667,1.731794 -2.65625,2.539063 -0.963573,0.807313 -1.992218,1.497416 -3.085937,2.070312 -1.093779,0.546895 -2.161486,0.820332 -3.203125,0.820313 -0.911484,1.9e-5 -1.731796,-0.221335 -2.460938,-0.664063 -0.72919,-0.442688 -1.354189,-1.002583 -1.875,-1.679687 -0.494813,-0.703103 -0.872417,-1.471332 -1.132812,-2.304688 -0.260438,-0.833309 -0.390646,-1.640599 -0.390625,-2.421875 l 0,-14.453125 -21.875,0 0,-4.023437 32.851562,0 c 1.119759,4.4e-5 1.75778,-0.182247 1.914063,-0.546875 L 35.375,11.051093 C 35.374966,10.556348 35.218716,10.11364 34.90625,9.7229682 34.593717,9.3323913 34.177051,9.0068708 33.65625,8.7464057 33.161427,8.486038 32.601532,8.2907257 31.976562,8.1604682 31.351533,8.0042676 30.726533,7.9261427 30.101562,7.9260932 l -1.367187,0 c -0.963568,4.95e-5 -1.914088,0.052133 -2.851563,0.15625 -0.911481,0.078174 -1.822939,0.16932 -2.734375,0.2734375 -0.911478,0.078174 -1.835957,0.1693197 -2.773437,0.2734375 -0.937518,0.078174 -1.901059,0.1172362 -2.890625,0.1171875 l -1.132813,0 c -5.65105,4.87e-5 -9.9088585,-0.7291173 -12.773437,-2.1875 -2.83854078,-1.4843227 -4.2578102,-3.854112 -4.2578125,-7.10937504 2.3e-6,-0.80723286 0.13021051,-1.57546126 0.390625,-2.30468746 0.23437668,-0.7551473 0.63802211,-1.3671259 1.2109375,-1.8359375 0.4687502,0.3125618 0.8984373,0.6901656 1.2890625,1.1328125 0.4166657,0.4167272 0.7291654,0.8854768 0.9375,1.40625 -0.3645845,0.5208924 -0.6380217,0.9896419 -0.8203125,1.40624996 -0.1562505,0.39068281 -0.2343755,0.72922414 -0.234375,1.015625 -5e-7,0.39068179 0.1041661,0.78130644 0.3125,1.17187504 0.234374,0.3646389 0.6380194,0.7031803 1.2109375,1.015625 0.5729141,0.286513 1.3411425,0.5208878 2.3046875,0.703125 0.9635364,0.1563041 2.1744727,0.234429 3.6328125,0.234375 2.1093645,5.4e-5 4.2317585,-0.1171334 6.3671875,-0.3515625 2.161442,-0.260362 4.296856,-0.4686952 6.40625,-0.625 l 1.367187,0 c 1.796852,5.5e-5 3.541642,0.1693257 5.234375,0.5078125 1.69268,0.3385958 3.203095,0.9115119 4.53125,1.71875 1.354134,0.8073436 2.473925,1.8750509 3.359375,3.203125 0.885381,1.3281732 1.419235,2.9818178 1.601563,4.9609378 l 10.234375,0 0,4.023437 -22.304688,0 0,14.375"
         id="path2942"
         style="font-size:60px;font-family:AdorshoLipi;-inkscape-font-specification:AdorshoLipi" />
    </g>
  </g>
</svg>
