<?xml version="1.0" encoding="UTF-8" standalone="no"?>
<!-- Created with Inkscape (http://www.inkscape.org/) -->

<svg
   xmlns:svg="http://www.w3.org/2000/svg"
   xmlns="http://www.w3.org/2000/svg"
   version="1.2"
   width="64"
   height="64"
   id="svg2816">
  <defs
     id="defs2818" />
  <g
     id="layer1">
    <g
       transform="translate(1.2727273,-13.090909)"
       id="flowRoot3061"
       style="font-size:80px;font-style:normal;font-variant:normal;font-weight:normal;font-stretch:normal;fill:#000000;fill-opacity:1;stroke:none;font-family:Andalus;-inkscape-font-specification:Andalus">
      <path
         d="m 40.635417,19.088958 c 2.083292,5.7e-5 3.940929,0.36464 5.572916,1.09375 1.631898,0.729222 3.003425,1.701443 4.114584,2.916666 1.145783,1.21533 2.013838,2.621579 2.604166,4.21875 0.624948,1.59727 0.937448,3.263935 0.9375,5 -5.2e-5,2.187542 -0.381996,4.305595 -1.145833,6.354167 -0.729217,2.013924 -1.736161,3.767395 -3.020833,5.260417 1.597172,1.56253 2.777726,3.29864 3.541666,5.208333 0.763837,1.909747 1.145781,3.871551 1.145834,5.885417 -5.3e-5,2.152796 -0.381997,4.149322 -1.145834,5.989583 -0.76394,1.840291 -1.840327,3.437512 -3.229166,4.791667 -1.388936,1.354175 -3.03824,2.430563 -4.947917,3.229166 -1.909764,0.763896 -4.027817,1.14584 -6.354167,1.145834 -3.437533,6e-6 -6.56253,-0.746521 -9.375,-2.239584 -2.812525,-1.493046 -5.364606,-3.47221 -7.65625,-5.9375 -2.256962,-2.499983 -4.28821,-5.347202 -6.09375,-8.541666 C 13.812488,50.269539 12.215267,46.95357 10.791667,43.516041 9.4027698,40.078577 8.1527711,36.658442 7.0416667,33.255624 5.9652733,29.818171 4.993052,26.658452 4.125,23.776458 l 3.6458333,1.927083 c 1.0069372,2.777825 2.1006861,5.659767 3.2812497,8.645833 1.180545,2.951428 2.53471,5.850731 4.0625,8.697917 1.562485,2.847252 3.350678,5.538222 5.364584,8.072917 2.04859,2.534744 4.42706,4.774325 7.135416,6.71875 0.798584,0.520851 1.597195,1.024323 2.395834,1.510416 0.833304,0.451406 1.683997,0.868072 2.552083,1.25 0.902746,0.347238 1.857606,0.625015 2.864583,0.833334 1.00691,0.208348 2.100659,0.312514 3.28125,0.3125 1.284684,1.4e-5 2.604127,-0.190958 3.958334,-0.572917 1.388846,-0.381929 2.638845,-0.972206 3.75,-1.770833 1.111065,-0.798594 2.013842,-1.788176 2.708333,-2.96875 0.729118,-1.215257 1.093701,-2.638867 1.09375,-4.270834 -4.9e-5,-1.111086 -0.295187,-2.118029 -0.885417,-3.020833 -0.555603,-0.937472 -1.336852,-1.666638 -2.34375,-2.1875 -1.631988,1.423639 -3.263931,2.135444 -4.895833,2.135417 -1.111151,2.7e-5 -2.066011,-0.173584 -2.864583,-0.520834 -0.763926,-0.347194 -1.406287,-0.815943 -1.927084,-1.40625 -0.486146,-0.62497 -0.86809,-1.336775 -1.145833,-2.135416 -0.277812,-0.833302 -0.468784,-1.718717 -0.572917,-2.65625 -3.4e-5,-0.937466 0.190938,-1.80552 0.572917,-2.604167 0.416632,-0.798574 0.937464,-1.475657 1.5625,-2.03125 0.659685,-0.590239 1.406212,-1.041627 2.239583,-1.354167 0.833294,-0.347182 1.683988,-0.520793 2.552084,-0.520833 0.65968,4e-5 1.28468,0.08685 1.875,0.260417 0.590234,0.173651 1.180511,0.468789 1.770833,0.885416 1.284676,-0.62496 2.239536,-1.493015 2.864583,-2.604166 0.659674,-1.111069 0.989535,-2.552039 0.989584,-4.322917 -4.9e-5,-1.006897 -0.225743,-1.857591 -0.677084,-2.552083 -0.416714,-0.729118 -0.98963,-1.319395 -1.71875,-1.770834 -0.69449,-0.451338 -1.4931,-0.781198 -2.395833,-0.989583 -0.902821,-0.208282 -1.84032,-0.312448 -2.8125,-0.3125 -1.319484,5.2e-5 -2.673649,0.208385 -4.0625,0.625 -1.354202,0.416717 -2.673645,0.989633 -3.958333,1.71875 -1.250032,0.694493 -2.430586,1.527826 -3.541667,2.5 -1.076417,0.937546 -2.013916,1.944489 -2.8125,3.020833 0.41664,0.208377 0.815945,0.538238 1.197917,0.989584 0.381916,0.451431 0.729138,0.989625 1.041666,1.614583 0.312471,0.625041 0.555527,1.284762 0.729167,1.979167 0.208304,0.694483 0.31247,1.371565 0.3125,2.03125 -3e-5,1.562535 -0.538224,2.708368 -1.614583,3.4375 -1.041694,0.694477 -2.309054,1.041699 -3.802084,1.041666 -2.395855,3.3e-5 -4.236131,-0.711772 -5.520833,-2.135416 -1.28474,-1.458297 -1.9271,-3.437462 -1.927083,-5.9375 -1.7e-5,-1.770791 0.347205,-3.402734 1.041666,-4.895834 0.729148,-1.493008 1.684008,-2.847173 2.864584,-4.0625 1.215255,-1.215226 2.586782,-2.274253 4.114583,-3.177083 1.562473,-0.902724 3.159694,-1.649251 4.791667,-2.239583 1.666635,-0.624945 3.298578,-1.093694 4.895833,-1.40625 1.631908,-0.312443 3.124962,-0.468693 4.479167,-0.46875"
         id="path3070"
         style="font-family:AdorshoLipi;-inkscape-font-specification:AdorshoLipi" />
    </g>
  </g>
</svg>
